<svg width="357" height="100" viewBox="0 0 357 100" fill="none" xmlns="http://www.w3.org/2000/svg">
<rect width="150" height="100" fill="#E7ECF2"/>
<rect width="357" height="100" fill="white"/>
<path d="M14.0227 62V38.7273H23.2045C24.9697 38.7273 26.4735 39.0644 27.7159 39.7386C28.9583 40.4053 29.9053 41.3333 30.5568 42.5227C31.2159 43.7045 31.5455 45.0682 31.5455 46.6136C31.5455 48.1591 31.2121 49.5227 30.5455 50.7045C29.8788 51.8864 28.9129 52.8068 27.6477 53.4659C26.3902 54.125 24.8674 54.4545 23.0795 54.4545H17.2273V50.5114H22.2841C23.2311 50.5114 24.0114 50.3485 24.625 50.0227C25.2462 49.6894 25.7083 49.2311 26.0114 48.6477C26.322 48.0568 26.4773 47.3788 26.4773 46.6136C26.4773 45.8409 26.322 45.1667 26.0114 44.5909C25.7083 44.0076 25.2462 43.5568 24.625 43.2386C24.0038 42.9129 23.2159 42.75 22.2614 42.75H18.9432V62H14.0227ZM34.7415 62V38.7273H50.4233V42.7841H39.6619V48.3295H49.6165V52.3864H39.6619V57.9432H50.4688V62H34.7415ZM54.3352 62V38.7273H63.517C65.2746 38.7273 66.7746 39.0417 68.017 39.6705C69.267 40.2917 70.2178 41.1742 70.8693 42.3182C71.5284 43.4545 71.858 44.7917 71.858 46.3295C71.858 47.875 71.5246 49.2045 70.858 50.3182C70.1913 51.4242 69.2254 52.2727 67.9602 52.8636C66.7027 53.4545 65.1799 53.75 63.392 53.75H57.2443V49.7955H62.5966C63.536 49.7955 64.3163 49.6667 64.9375 49.4091C65.5587 49.1515 66.0208 48.7652 66.3239 48.25C66.6345 47.7348 66.7898 47.0947 66.7898 46.3295C66.7898 45.5568 66.6345 44.9053 66.3239 44.375C66.0208 43.8447 65.5549 43.4432 64.9261 43.1705C64.3049 42.8902 63.5208 42.75 62.5739 42.75H59.2557V62H54.3352ZM66.9034 51.4091L72.6875 62H67.2557L61.5966 51.4091H66.9034ZM87.9602 45.4205C87.8693 44.5038 87.4792 43.7917 86.7898 43.2841C86.1004 42.7765 85.1648 42.5227 83.983 42.5227C83.1799 42.5227 82.5019 42.6364 81.9489 42.8636C81.3958 43.0833 80.9716 43.3902 80.6761 43.7841C80.3883 44.178 80.2443 44.625 80.2443 45.125C80.2292 45.5417 80.3163 45.9053 80.5057 46.2159C80.7027 46.5265 80.9716 46.7955 81.3125 47.0227C81.6534 47.2424 82.0473 47.4356 82.4943 47.6023C82.9413 47.7614 83.4186 47.8977 83.9261 48.0114L86.017 48.5114C87.0322 48.7386 87.964 49.0417 88.8125 49.4205C89.661 49.7992 90.3958 50.2652 91.017 50.8182C91.6383 51.3712 92.1193 52.0227 92.4602 52.7727C92.8087 53.5227 92.9867 54.3826 92.9943 55.3523C92.9867 56.7765 92.6231 58.0114 91.9034 59.0568C91.1913 60.0947 90.161 60.9015 88.8125 61.4773C87.4716 62.0455 85.8542 62.3295 83.9602 62.3295C82.0814 62.3295 80.4451 62.0417 79.0511 61.4659C77.6648 60.8902 76.5814 60.0379 75.8011 58.9091C75.0284 57.7727 74.6231 56.3674 74.5852 54.6932H79.3466C79.3996 55.4735 79.6231 56.125 80.017 56.6477C80.4186 57.1629 80.9527 57.553 81.6193 57.8182C82.2936 58.0758 83.0549 58.2045 83.9034 58.2045C84.7367 58.2045 85.4602 58.0833 86.0739 57.8409C86.6951 57.5985 87.1761 57.2614 87.517 56.8295C87.858 56.3977 88.0284 55.9015 88.0284 55.3409C88.0284 54.8182 87.8731 54.3788 87.5625 54.0227C87.2595 53.6667 86.8125 53.3636 86.2216 53.1136C85.6383 52.8636 84.9223 52.6364 84.0739 52.4318L81.5398 51.7955C79.5777 51.3182 78.0284 50.572 76.892 49.5568C75.7557 48.5417 75.1913 47.1742 75.1989 45.4545C75.1913 44.0455 75.5663 42.8144 76.3239 41.7614C77.089 40.7083 78.1383 39.8864 79.4716 39.2955C80.8049 38.7045 82.3201 38.4091 84.017 38.4091C85.7443 38.4091 87.2519 38.7045 88.5398 39.2955C89.8352 39.8864 90.8428 40.7083 91.5625 41.7614C92.2822 42.8144 92.6534 44.0341 92.6761 45.4205H87.9602ZM110.679 38.7273H115.599V53.8409C115.599 55.5379 115.194 57.0227 114.384 58.2955C113.58 59.5682 112.455 60.5606 111.009 61.2727C109.562 61.9773 107.876 62.3295 105.952 62.3295C104.02 62.3295 102.33 61.9773 100.884 61.2727C99.4366 60.5606 98.3116 59.5682 97.5085 58.2955C96.7055 57.0227 96.304 55.5379 96.304 53.8409V38.7273H101.224V53.4205C101.224 54.3068 101.418 55.0947 101.804 55.7841C102.198 56.4735 102.751 57.0152 103.463 57.4091C104.175 57.803 105.005 58 105.952 58C106.906 58 107.736 57.803 108.44 57.4091C109.152 57.0152 109.702 56.4735 110.088 55.7841C110.482 55.0947 110.679 54.3068 110.679 53.4205V38.7273ZM119.648 62V38.7273H135.33V42.7841H124.568V48.3295H134.523V52.3864H124.568V57.9432H135.375V62H119.648Z" fill="#9D2235"/>
<path d="M164.224 35H161.62V17.3H166.948C168.308 17.3 169.448 17.556 170.368 18.068C171.296 18.58 171.992 19.272 172.456 20.144C172.928 21.008 173.164 21.976 173.164 23.048C173.164 24.12 172.924 25.108 172.444 26.012C171.972 26.908 171.272 27.628 170.344 28.172C169.416 28.716 168.284 28.988 166.948 28.988H164.224V35ZM164.224 28.1L163.048 26.828H166.648C167.496 26.828 168.208 26.676 168.784 26.372C169.368 26.06 169.808 25.62 170.104 25.052C170.4 24.484 170.548 23.816 170.548 23.048C170.548 22.28 170.404 21.628 170.116 21.092C169.828 20.556 169.396 20.152 168.82 19.88C168.244 19.6 167.52 19.46 166.648 19.46H163.048L164.224 18.092V28.1ZM175.86 35V22.256H178.464V26.324L177.768 26.012C177.824 25.492 177.956 24.996 178.164 24.524C178.372 24.052 178.648 23.632 178.992 23.264C179.344 22.888 179.776 22.592 180.288 22.376C180.8 22.16 181.392 22.052 182.064 22.052C182.576 22.052 182.988 22.092 183.3 22.172C183.62 22.252 183.816 22.316 183.888 22.364L183.336 24.812C183.256 24.756 183.092 24.684 182.844 24.596C182.604 24.508 182.268 24.464 181.836 24.464C181.18 24.464 180.636 24.58 180.204 24.812C179.772 25.044 179.428 25.352 179.172 25.736C178.916 26.12 178.732 26.54 178.62 26.996C178.516 27.444 178.464 27.896 178.464 28.352V35H175.86ZM186.021 35V22.256H188.589V35H186.021ZM187.317 19.616C186.869 19.616 186.481 19.496 186.153 19.256C185.833 19.008 185.673 18.668 185.673 18.236C185.673 17.812 185.833 17.48 186.153 17.24C186.481 16.992 186.869 16.868 187.317 16.868C187.757 16.868 188.137 16.992 188.457 17.24C188.785 17.48 188.949 17.812 188.949 18.236C188.949 18.668 188.785 19.008 188.457 19.256C188.137 19.496 187.757 19.616 187.317 19.616ZM202.748 22.256L198.62 35H195.164L190.928 22.256H193.616L197.096 33.908H196.688L200.06 22.256H202.748ZM208.8 35.252C207.84 35.252 206.996 35.1 206.268 34.796C205.548 34.492 204.988 34.056 204.588 33.488C204.188 32.92 203.988 32.236 203.988 31.436C203.988 30.58 204.212 29.872 204.66 29.312C205.116 28.752 205.74 28.32 206.532 28.016C207.332 27.704 208.24 27.5 209.256 27.404C210.768 27.252 211.832 27.104 212.448 26.96C213.072 26.816 213.384 26.58 213.384 26.252C213.384 26.244 213.384 26.236 213.384 26.228C213.384 25.58 213.108 25.088 212.556 24.752C212.004 24.416 211.216 24.248 210.192 24.248C209.112 24.248 208.276 24.44 207.684 24.824C207.1 25.2 206.808 25.8 206.808 26.624H204.252C204.252 25.648 204.504 24.82 205.008 24.14C205.52 23.46 206.224 22.944 207.12 22.592C208.016 22.232 209.044 22.052 210.204 22.052C211.268 22.052 212.236 22.216 213.108 22.544C213.988 22.864 214.688 23.344 215.208 23.984C215.728 24.624 215.988 25.42 215.988 26.372C215.988 26.54 215.988 26.708 215.988 26.876C215.988 27.036 215.988 27.2 215.988 27.368V32.456C215.988 32.752 216 33.04 216.024 33.32C216.048 33.592 216.092 33.836 216.156 34.052C216.228 34.3 216.312 34.504 216.408 34.664C216.512 34.824 216.596 34.936 216.66 35H214.068C214.02 34.952 213.948 34.852 213.852 34.7C213.764 34.54 213.684 34.356 213.612 34.148C213.54 33.948 213.484 33.72 213.444 33.464C213.412 33.2 213.396 32.916 213.396 32.612L213.876 32.948C213.636 33.412 213.272 33.816 212.784 34.16C212.304 34.504 211.724 34.772 211.044 34.964C210.372 35.156 209.624 35.252 208.8 35.252ZM209.34 33.092C210.084 33.092 210.76 32.976 211.368 32.744C211.984 32.504 212.476 32.144 212.844 31.664C213.212 31.176 213.396 30.564 213.396 29.828V27.716L214.008 28.52C213.496 28.72 212.868 28.884 212.124 29.012C211.388 29.132 210.628 29.232 209.844 29.312C208.764 29.408 207.952 29.596 207.408 29.876C206.864 30.148 206.592 30.604 206.592 31.244C206.592 31.86 206.816 32.324 207.264 32.636C207.72 32.94 208.412 33.092 209.34 33.092ZM224.269 35.216C223.845 35.216 223.421 35.172 222.997 35.084C222.581 34.996 222.197 34.836 221.845 34.604C221.501 34.364 221.225 34.024 221.017 33.584C220.809 33.144 220.705 32.568 220.705 31.856C220.705 31.688 220.705 31.512 220.705 31.328C220.705 31.144 220.705 30.956 220.705 30.764V24.416H217.645V22.256H219.253C219.597 22.256 219.865 22.244 220.057 22.22C220.257 22.188 220.401 22.12 220.489 22.016C220.585 21.904 220.645 21.728 220.669 21.488C220.693 21.248 220.705 20.92 220.705 20.504V18.044H223.309V22.256H227.209V24.416H223.309V30.068C223.309 30.228 223.309 30.388 223.309 30.548C223.309 30.708 223.309 30.856 223.309 30.992C223.309 31.632 223.385 32.136 223.537 32.504C223.697 32.872 224.057 33.056 224.617 33.056C224.857 33.056 225.085 33.036 225.301 32.996C225.517 32.956 225.681 32.912 225.793 32.864V34.988C225.649 35.044 225.445 35.096 225.181 35.144C224.917 35.192 224.613 35.216 224.269 35.216ZM231.052 19.46L232.228 18.092V25.868L231.604 25.04H238.312V27.2H231.604L232.228 26.372V34.208L231.052 32.84H239.644V35H229.612V17.3H239.644V19.46H231.052ZM243.37 38.456L242.986 37.772C243.306 37.628 243.63 37.4 243.958 37.088C244.286 36.776 244.562 36.436 244.786 36.068C245.018 35.708 245.134 35.372 245.134 35.06C245.134 34.964 245.122 34.872 245.098 34.784C245.074 34.688 245.038 34.604 244.99 34.532H245.65C245.546 34.788 245.366 34.984 245.11 35.12C244.862 35.256 244.59 35.324 244.294 35.324C243.87 35.324 243.498 35.192 243.178 34.928C242.866 34.664 242.71 34.284 242.71 33.788C242.71 33.308 242.878 32.92 243.214 32.624C243.55 32.328 243.986 32.18 244.522 32.18C245.098 32.18 245.554 32.364 245.89 32.732C246.226 33.092 246.394 33.584 246.394 34.208C246.394 34.824 246.238 35.42 245.926 35.996C245.622 36.572 245.238 37.072 244.774 37.496C244.31 37.928 243.842 38.248 243.37 38.456ZM255.651 35V17.3H262.131C263.835 17.3 265.123 17.696 265.995 18.488C266.867 19.28 267.303 20.468 267.303 22.052C267.303 22.98 267.123 23.772 266.763 24.428C266.411 25.084 265.983 25.592 265.479 25.952C264.983 26.304 264.515 26.504 264.075 26.552C264.523 26.584 264.959 26.704 265.383 26.912C265.807 27.12 266.159 27.44 266.439 27.872C266.719 28.304 266.859 28.888 266.859 29.624C266.859 30.248 266.859 30.88 266.859 31.52C266.859 32.16 266.859 32.796 266.859 33.428C266.859 33.788 266.887 34.116 266.943 34.412C267.007 34.7 267.083 34.896 267.171 35H264.543C264.471 34.88 264.407 34.68 264.351 34.4C264.295 34.12 264.267 33.796 264.267 33.428C264.267 32.852 264.267 32.272 264.267 31.688C264.267 31.104 264.267 30.52 264.267 29.936C264.267 29.176 264.039 28.608 263.583 28.232C263.135 27.848 262.479 27.656 261.615 27.656H257.487L258.195 26.732V35H255.651ZM258.195 26.516L257.487 25.496H261.639C262.199 25.496 262.703 25.364 263.151 25.1C263.599 24.828 263.955 24.452 264.219 23.972C264.491 23.484 264.627 22.916 264.627 22.268C264.627 21.292 264.359 20.58 263.823 20.132C263.287 19.684 262.519 19.46 261.519 19.46H257.427L258.195 18.464V26.516ZM271.284 29.54V27.512H280.668L280.308 28.112C280.308 28.064 280.308 28.016 280.308 27.968C280.308 27.912 280.308 27.864 280.308 27.824C280.308 27.176 280.168 26.58 279.888 26.036C279.608 25.484 279.188 25.044 278.628 24.716C278.076 24.38 277.384 24.212 276.552 24.212C275.72 24.212 274.988 24.392 274.356 24.752C273.732 25.104 273.244 25.608 272.892 26.264C272.548 26.912 272.376 27.692 272.376 28.604C272.376 29.532 272.544 30.332 272.88 31.004C273.216 31.668 273.7 32.18 274.332 32.54C274.964 32.9 275.72 33.08 276.6 33.08C277.216 33.08 277.748 33.02 278.196 32.9C278.652 32.772 279.024 32.604 279.312 32.396C279.608 32.188 279.832 31.964 279.984 31.724C280.136 31.476 280.224 31.232 280.248 30.992H282.84C282.792 31.512 282.62 32.028 282.324 32.54C282.036 33.044 281.624 33.504 281.088 33.92C280.56 34.328 279.912 34.656 279.144 34.904C278.384 35.144 277.508 35.264 276.516 35.264C275.188 35.264 274.024 34.984 273.024 34.424C272.024 33.864 271.244 33.088 270.684 32.096C270.124 31.096 269.844 29.952 269.844 28.664C269.844 27.352 270.128 26.2 270.696 25.208C271.264 24.216 272.052 23.444 273.06 22.892C274.068 22.332 275.224 22.052 276.528 22.052C277.856 22.052 279.004 22.332 279.972 22.892C280.948 23.452 281.7 24.224 282.228 25.208C282.756 26.192 283.02 27.324 283.02 28.604C283.02 28.756 283.016 28.932 283.008 29.132C283 29.332 282.988 29.468 282.972 29.54H271.284ZM288.671 16.244V35H286.103V16.244H288.671ZM292.193 35V22.256H294.761V35H292.193ZM293.489 19.616C293.041 19.616 292.653 19.496 292.325 19.256C292.005 19.008 291.845 18.668 291.845 18.236C291.845 17.812 292.005 17.48 292.325 17.24C292.653 16.992 293.041 16.868 293.489 16.868C293.929 16.868 294.309 16.992 294.629 17.24C294.957 17.48 295.121 17.812 295.121 18.236C295.121 18.668 294.957 19.008 294.629 19.256C294.309 19.496 293.929 19.616 293.489 19.616ZM302.643 35.252C301.683 35.252 300.839 35.1 300.111 34.796C299.391 34.492 298.831 34.056 298.431 33.488C298.031 32.92 297.831 32.236 297.831 31.436C297.831 30.58 298.055 29.872 298.503 29.312C298.959 28.752 299.583 28.32 300.375 28.016C301.175 27.704 302.083 27.5 303.099 27.404C304.611 27.252 305.675 27.104 306.291 26.96C306.915 26.816 307.227 26.58 307.227 26.252C307.227 26.244 307.227 26.236 307.227 26.228C307.227 25.58 306.951 25.088 306.399 24.752C305.847 24.416 305.059 24.248 304.035 24.248C302.955 24.248 302.119 24.44 301.527 24.824C300.943 25.2 300.651 25.8 300.651 26.624H298.095C298.095 25.648 298.347 24.82 298.851 24.14C299.363 23.46 300.067 22.944 300.963 22.592C301.859 22.232 302.887 22.052 304.047 22.052C305.111 22.052 306.079 22.216 306.951 22.544C307.831 22.864 308.531 23.344 309.051 23.984C309.571 24.624 309.831 25.42 309.831 26.372C309.831 26.54 309.831 26.708 309.831 26.876C309.831 27.036 309.831 27.2 309.831 27.368V32.456C309.831 32.752 309.843 33.04 309.867 33.32C309.891 33.592 309.935 33.836 309.999 34.052C310.071 34.3 310.155 34.504 310.251 34.664C310.355 34.824 310.439 34.936 310.503 35H307.911C307.863 34.952 307.791 34.852 307.695 34.7C307.607 34.54 307.527 34.356 307.455 34.148C307.383 33.948 307.327 33.72 307.287 33.464C307.255 33.2 307.239 32.916 307.239 32.612L307.719 32.948C307.479 33.412 307.115 33.816 306.627 34.16C306.147 34.504 305.567 34.772 304.887 34.964C304.215 35.156 303.467 35.252 302.643 35.252ZM303.183 33.092C303.927 33.092 304.603 32.976 305.211 32.744C305.827 32.504 306.319 32.144 306.687 31.664C307.055 31.176 307.239 30.564 307.239 29.828V27.716L307.851 28.52C307.339 28.72 306.711 28.884 305.967 29.012C305.231 29.132 304.471 29.232 303.687 29.312C302.607 29.408 301.795 29.596 301.251 29.876C300.707 30.148 300.435 30.604 300.435 31.244C300.435 31.86 300.659 32.324 301.107 32.636C301.563 32.94 302.255 33.092 303.183 33.092ZM319.701 35.252C318.709 35.252 317.789 35.004 316.941 34.508C316.093 34.004 315.405 33.316 314.877 32.444C314.357 31.572 314.097 30.584 314.097 29.48C314.097 29.448 314.097 29.424 314.097 29.408C314.097 29.384 314.097 29.36 314.097 29.336L315.609 29.3C315.609 29.316 315.609 29.336 315.609 29.36C315.609 29.376 315.609 29.396 315.609 29.42C315.609 30.076 315.777 30.668 316.113 31.196C316.457 31.716 316.901 32.128 317.445 32.432C317.989 32.736 318.573 32.888 319.197 32.888C320.221 32.888 321.081 32.54 321.777 31.844C322.481 31.14 322.833 30.06 322.833 28.604C322.833 27.14 322.485 26.064 321.789 25.376C321.093 24.68 320.229 24.332 319.197 24.332C318.573 24.332 317.989 24.484 317.445 24.788C316.901 25.084 316.457 25.492 316.113 26.012C315.777 26.524 315.609 27.112 315.609 27.776L314.097 27.716C314.097 26.604 314.357 25.624 314.877 24.776C315.405 23.92 316.093 23.252 316.941 22.772C317.789 22.292 318.709 22.052 319.701 22.052C320.733 22.052 321.689 22.308 322.569 22.82C323.449 23.324 324.157 24.064 324.693 25.04C325.237 26.016 325.509 27.204 325.509 28.604C325.509 30.036 325.245 31.248 324.717 32.24C324.189 33.232 323.485 33.984 322.605 34.496C321.725 35 320.757 35.252 319.701 35.252ZM312.993 35V16.244H315.609V35H312.993ZM331.14 16.244V35H328.572V16.244H331.14ZM335.55 29.54V27.512H344.934L344.574 28.112C344.574 28.064 344.574 28.016 344.574 27.968C344.574 27.912 344.574 27.864 344.574 27.824C344.574 27.176 344.434 26.58 344.154 26.036C343.874 25.484 343.454 25.044 342.894 24.716C342.342 24.38 341.65 24.212 340.818 24.212C339.986 24.212 339.254 24.392 338.622 24.752C337.998 25.104 337.51 25.608 337.158 26.264C336.814 26.912 336.642 27.692 336.642 28.604C336.642 29.532 336.81 30.332 337.146 31.004C337.482 31.668 337.966 32.18 338.598 32.54C339.23 32.9 339.986 33.08 340.866 33.08C341.482 33.08 342.014 33.02 342.462 32.9C342.918 32.772 343.29 32.604 343.578 32.396C343.874 32.188 344.098 31.964 344.25 31.724C344.402 31.476 344.49 31.232 344.514 30.992H347.106C347.058 31.512 346.886 32.028 346.59 32.54C346.302 33.044 345.89 33.504 345.354 33.92C344.826 34.328 344.178 34.656 343.41 34.904C342.65 35.144 341.774 35.264 340.782 35.264C339.454 35.264 338.29 34.984 337.29 34.424C336.29 33.864 335.51 33.088 334.95 32.096C334.39 31.096 334.11 29.952 334.11 28.664C334.11 27.352 334.394 26.2 334.962 25.208C335.53 24.216 336.318 23.444 337.326 22.892C338.334 22.332 339.49 22.052 340.794 22.052C342.122 22.052 343.27 22.332 344.238 22.892C345.214 23.452 345.966 24.224 346.494 25.208C347.022 26.192 347.286 27.324 347.286 28.604C347.286 28.756 347.282 28.932 347.274 29.132C347.266 29.332 347.254 29.468 347.238 29.54H335.55ZM166.12 60.252C165.16 60.252 164.316 60.1 163.588 59.796C162.868 59.492 162.308 59.056 161.908 58.488C161.508 57.92 161.308 57.236 161.308 56.436C161.308 55.58 161.532 54.872 161.98 54.312C162.436 53.752 163.06 53.32 163.852 53.016C164.652 52.704 165.56 52.5 166.576 52.404C168.088 52.252 169.152 52.104 169.768 51.96C170.392 51.816 170.704 51.58 170.704 51.252C170.704 51.244 170.704 51.236 170.704 51.228C170.704 50.58 170.428 50.088 169.876 49.752C169.324 49.416 168.536 49.248 167.512 49.248C166.432 49.248 165.596 49.44 165.004 49.824C164.42 50.2 164.128 50.8 164.128 51.624H161.572C161.572 50.648 161.824 49.82 162.328 49.14C162.84 48.46 163.544 47.944 164.44 47.592C165.336 47.232 166.364 47.052 167.524 47.052C168.588 47.052 169.556 47.216 170.428 47.544C171.308 47.864 172.008 48.344 172.528 48.984C173.048 49.624 173.308 50.42 173.308 51.372C173.308 51.54 173.308 51.708 173.308 51.876C173.308 52.036 173.308 52.2 173.308 52.368V57.456C173.308 57.752 173.32 58.04 173.344 58.32C173.368 58.592 173.412 58.836 173.476 59.052C173.548 59.3 173.632 59.504 173.728 59.664C173.832 59.824 173.916 59.936 173.98 60H171.388C171.34 59.952 171.268 59.852 171.172 59.7C171.084 59.54 171.004 59.356 170.932 59.148C170.86 58.948 170.804 58.72 170.764 58.464C170.732 58.2 170.716 57.916 170.716 57.612L171.196 57.948C170.956 58.412 170.592 58.816 170.104 59.16C169.624 59.504 169.044 59.772 168.364 59.964C167.692 60.156 166.944 60.252 166.12 60.252ZM166.66 58.092C167.404 58.092 168.08 57.976 168.688 57.744C169.304 57.504 169.796 57.144 170.164 56.664C170.532 56.176 170.716 55.564 170.716 54.828V52.716L171.328 53.52C170.816 53.72 170.188 53.884 169.444 54.012C168.708 54.132 167.948 54.232 167.164 54.312C166.084 54.408 165.272 54.596 164.728 54.876C164.184 55.148 163.912 55.604 163.912 56.244C163.912 56.86 164.136 57.324 164.584 57.636C165.04 57.94 165.732 58.092 166.66 58.092ZM185.542 60V54.12C185.542 53.776 185.542 53.484 185.542 53.244C185.542 53.004 185.542 52.78 185.542 52.572C185.542 51.948 185.446 51.4 185.254 50.928C185.062 50.448 184.746 50.076 184.306 49.812C183.866 49.54 183.278 49.404 182.542 49.404C181.894 49.404 181.306 49.564 180.778 49.884C180.258 50.204 179.842 50.64 179.53 51.192C179.226 51.736 179.074 52.356 179.074 53.052L177.958 52.5C177.958 51.468 178.202 50.544 178.69 49.728C179.178 48.904 179.83 48.252 180.646 47.772C181.47 47.292 182.37 47.052 183.346 47.052C184.354 47.052 185.214 47.248 185.926 47.64C186.646 48.024 187.194 48.576 187.57 49.296C187.954 50.008 188.146 50.86 188.146 51.852C188.146 52.22 188.146 52.628 188.146 53.076C188.146 53.524 188.146 53.956 188.146 54.372V60H185.542ZM176.47 60V47.256H179.074V60H176.47ZM196.703 60.252C195.655 60.252 194.691 60 193.811 59.496C192.931 58.984 192.227 58.232 191.699 57.24C191.171 56.248 190.907 55.036 190.907 53.604C190.907 52.204 191.175 51.016 191.711 50.04C192.247 49.064 192.955 48.324 193.835 47.82C194.715 47.308 195.671 47.052 196.703 47.052C197.695 47.052 198.615 47.292 199.463 47.772C200.319 48.252 201.007 48.92 201.527 49.776C202.047 50.624 202.307 51.604 202.307 52.716C202.307 52.748 202.307 52.78 202.307 52.812C202.307 52.836 202.307 52.86 202.307 52.884L200.795 52.932C200.795 52.908 200.795 52.884 200.795 52.86C200.795 52.828 200.795 52.8 200.795 52.776C200.795 52.112 200.627 51.524 200.291 51.012C199.955 50.492 199.511 50.084 198.959 49.788C198.415 49.484 197.835 49.332 197.219 49.332C196.187 49.332 195.323 49.68 194.627 50.376C193.931 51.064 193.583 52.14 193.583 53.604C193.583 55.06 193.931 56.14 194.627 56.844C195.331 57.54 196.195 57.888 197.219 57.888C197.859 57.888 198.451 57.736 198.995 57.432C199.539 57.12 199.975 56.696 200.303 56.16C200.631 55.624 200.795 55.012 200.795 54.324L202.307 54.384C202.307 55.488 202.055 56.484 201.551 57.372C201.055 58.26 200.383 58.964 199.535 59.484C198.695 59.996 197.751 60.252 196.703 60.252ZM200.795 60V41.244H203.411V60H200.795ZM218.235 60.252C216.987 60.252 215.911 60.056 215.007 59.664C214.111 59.272 213.415 58.68 212.919 57.888C212.431 57.088 212.187 56.1 212.187 54.924C212.187 54.772 212.187 54.64 212.187 54.528C212.187 54.416 212.187 54.288 212.187 54.144H214.791C214.791 54.28 214.791 54.4 214.791 54.504C214.791 54.6 214.791 54.724 214.791 54.876C214.791 55.964 215.083 56.764 215.667 57.276C216.251 57.78 217.103 58.032 218.223 58.032C219.367 58.032 220.239 57.84 220.839 57.456C221.439 57.064 221.739 56.436 221.739 55.572C221.739 54.956 221.551 54.44 221.175 54.024C220.807 53.6 220.295 53.236 219.639 52.932C218.991 52.628 218.243 52.344 217.395 52.08C216.443 51.784 215.583 51.408 214.815 50.952C214.047 50.488 213.435 49.912 212.979 49.224C212.531 48.528 212.307 47.68 212.307 46.68C212.307 45.696 212.555 44.86 213.051 44.172C213.547 43.484 214.235 42.964 215.115 42.612C215.995 42.252 217.003 42.072 218.139 42.072C219.347 42.072 220.399 42.26 221.295 42.636C222.199 43.004 222.899 43.564 223.395 44.316C223.899 45.06 224.151 46 224.151 47.136C224.151 47.296 224.151 47.436 224.151 47.556C224.151 47.668 224.151 47.808 224.151 47.976H221.535C221.535 47.84 221.535 47.716 221.535 47.604C221.535 47.492 221.535 47.372 221.535 47.244C221.535 46.204 221.251 45.452 220.683 44.988C220.123 44.524 219.291 44.292 218.187 44.292C217.115 44.292 216.287 44.48 215.703 44.856C215.127 45.232 214.839 45.84 214.839 46.68C214.839 47.304 215.023 47.824 215.391 48.24C215.767 48.656 216.279 49.012 216.927 49.308C217.583 49.604 218.327 49.892 219.159 50.172C220.215 50.524 221.123 50.92 221.883 51.36C222.651 51.8 223.243 52.348 223.659 53.004C224.075 53.66 224.283 54.488 224.283 55.488C224.283 56.496 224.035 57.356 223.539 58.068C223.043 58.78 222.343 59.324 221.439 59.7C220.535 60.068 219.467 60.252 218.235 60.252ZM228.042 54.54V52.512H237.426L237.066 53.112C237.066 53.064 237.066 53.016 237.066 52.968C237.066 52.912 237.066 52.864 237.066 52.824C237.066 52.176 236.926 51.58 236.646 51.036C236.366 50.484 235.946 50.044 235.386 49.716C234.834 49.38 234.142 49.212 233.31 49.212C232.478 49.212 231.746 49.392 231.114 49.752C230.49 50.104 230.002 50.608 229.65 51.264C229.306 51.912 229.134 52.692 229.134 53.604C229.134 54.532 229.302 55.332 229.638 56.004C229.974 56.668 230.458 57.18 231.09 57.54C231.722 57.9 232.478 58.08 233.358 58.08C233.974 58.08 234.506 58.02 234.954 57.9C235.41 57.772 235.782 57.604 236.07 57.396C236.366 57.188 236.59 56.964 236.742 56.724C236.894 56.476 236.982 56.232 237.006 55.992H239.598C239.55 56.512 239.378 57.028 239.082 57.54C238.794 58.044 238.382 58.504 237.846 58.92C237.318 59.328 236.67 59.656 235.902 59.904C235.142 60.144 234.266 60.264 233.274 60.264C231.946 60.264 230.782 59.984 229.782 59.424C228.782 58.864 228.002 58.088 227.442 57.096C226.882 56.096 226.602 54.952 226.602 53.664C226.602 52.352 226.886 51.2 227.454 50.208C228.022 49.216 228.81 48.444 229.818 47.892C230.826 47.332 231.982 47.052 233.286 47.052C234.614 47.052 235.762 47.332 236.73 47.892C237.706 48.452 238.458 49.224 238.986 50.208C239.514 51.192 239.778 52.324 239.778 53.604C239.778 53.756 239.774 53.932 239.766 54.132C239.758 54.332 239.746 54.468 239.73 54.54H228.042ZM248.861 60.252C247.581 60.252 246.433 59.984 245.417 59.448C244.409 58.904 243.613 58.132 243.029 57.132C242.453 56.132 242.165 54.956 242.165 53.604C242.165 52.252 242.453 51.088 243.029 50.112C243.613 49.128 244.409 48.372 245.417 47.844C246.433 47.316 247.581 47.052 248.861 47.052C249.829 47.052 250.689 47.2 251.441 47.496C252.193 47.784 252.829 48.168 253.349 48.648C253.869 49.128 254.265 49.656 254.537 50.232C254.809 50.808 254.945 51.384 254.945 51.96C254.945 51.968 254.945 51.98 254.945 51.996C254.945 52.012 254.945 52.028 254.945 52.044H252.365C252.365 52.004 252.361 51.96 252.353 51.912C252.345 51.856 252.337 51.804 252.329 51.756C252.265 51.284 252.081 50.864 251.777 50.496C251.473 50.128 251.073 49.836 250.577 49.62C250.081 49.404 249.501 49.296 248.837 49.296C248.109 49.296 247.437 49.456 246.821 49.776C246.213 50.088 245.725 50.564 245.357 51.204C244.989 51.844 244.805 52.644 244.805 53.604C244.805 54.564 244.985 55.372 245.345 56.028C245.713 56.676 246.201 57.168 246.809 57.504C247.425 57.84 248.101 58.008 248.837 58.008C249.629 58.008 250.277 57.888 250.781 57.648C251.285 57.4 251.665 57.072 251.921 56.664C252.177 56.248 252.325 55.8 252.365 55.32H254.945C254.945 55.896 254.813 56.48 254.549 57.072C254.285 57.656 253.897 58.188 253.385 58.668C252.873 59.148 252.237 59.532 251.477 59.82C250.725 60.108 249.853 60.252 248.861 60.252ZM270.265 53.52C270.265 55.792 269.709 57.484 268.597 58.596C267.485 59.7 265.949 60.252 263.989 60.252C262.037 60.252 260.505 59.7 259.393 58.596C258.289 57.484 257.737 55.792 257.737 53.52C257.737 53.184 257.737 52.828 257.737 52.452C257.737 52.068 257.737 51.668 257.737 51.252V42.3H260.341V51.54C260.341 51.924 260.341 52.28 260.341 52.608C260.341 52.936 260.341 53.236 260.341 53.508C260.341 55.108 260.645 56.264 261.253 56.976C261.861 57.68 262.773 58.032 263.989 58.032C265.213 58.032 266.129 57.68 266.737 56.976C267.353 56.264 267.661 55.108 267.661 53.508V42.3H270.265V53.52ZM273.595 60V47.256H276.199V51.324L275.503 51.012C275.559 50.492 275.691 49.996 275.899 49.524C276.107 49.052 276.383 48.632 276.727 48.264C277.079 47.888 277.511 47.592 278.023 47.376C278.535 47.16 279.127 47.052 279.799 47.052C280.311 47.052 280.723 47.092 281.035 47.172C281.355 47.252 281.551 47.316 281.623 47.364L281.071 49.812C280.991 49.756 280.827 49.684 280.579 49.596C280.339 49.508 280.003 49.464 279.571 49.464C278.915 49.464 278.371 49.58 277.939 49.812C277.507 50.044 277.163 50.352 276.907 50.736C276.651 51.12 276.467 51.54 276.355 51.996C276.251 52.444 276.199 52.896 276.199 53.352V60H273.595ZM285.076 44.46L286.252 43.092V50.868L285.628 50.04H292.336V52.2H285.628L286.252 51.372V59.208L285.076 57.84H293.668V60H283.636V42.3H293.668V44.46H285.076ZM175.108 78.736C175.108 79.472 174.972 80.22 174.7 80.98C174.428 81.74 174.016 82.444 173.464 83.092C172.912 83.74 172.216 84.264 171.376 84.664C170.536 85.056 169.548 85.252 168.412 85.252C166.868 85.252 165.552 84.864 164.464 84.088C163.384 83.304 162.56 82.228 161.992 80.86C161.424 79.492 161.14 77.924 161.14 76.156C161.14 74.38 161.424 72.812 161.992 71.452C162.56 70.084 163.384 69.012 164.464 68.236C165.552 67.46 166.868 67.072 168.412 67.072C169.7 67.072 170.796 67.324 171.7 67.828C172.612 68.332 173.336 68.98 173.872 69.772C174.416 70.564 174.776 71.388 174.952 72.244C175.056 72.708 175.108 73.148 175.108 73.564H172.492C172.492 73.34 172.472 73.096 172.432 72.832C172.344 72.192 172.128 71.604 171.784 71.068C171.448 70.532 170.996 70.104 170.428 69.784C169.868 69.464 169.196 69.304 168.412 69.304C167.5 69.304 166.696 69.56 166 70.072C165.304 70.576 164.76 71.336 164.368 72.352C163.984 73.368 163.792 74.636 163.792 76.156C163.792 77.668 163.984 78.936 164.368 79.96C164.76 80.976 165.304 81.744 166 82.264C166.696 82.776 167.5 83.032 168.412 83.032C169.076 83.032 169.66 82.912 170.164 82.672C170.668 82.432 171.092 82.108 171.436 81.7C171.78 81.292 172.04 80.832 172.216 80.32C172.4 79.808 172.492 79.28 172.492 78.736H175.108ZM184.102 85.24C182.79 85.24 181.63 84.956 180.622 84.388C179.622 83.82 178.838 83.04 178.27 82.048C177.71 81.048 177.43 79.904 177.43 78.616C177.43 77.336 177.71 76.204 178.27 75.22C178.838 74.228 179.622 73.456 180.622 72.904C181.63 72.344 182.79 72.064 184.102 72.064C185.414 72.064 186.57 72.344 187.57 72.904C188.578 73.456 189.362 74.228 189.922 75.22C190.49 76.204 190.774 77.336 190.774 78.616C190.774 79.904 190.49 81.048 189.922 82.048C189.362 83.04 188.578 83.82 187.57 84.388C186.57 84.956 185.414 85.24 184.102 85.24ZM184.102 83.008C184.902 83.008 185.606 82.828 186.214 82.468C186.822 82.108 187.298 81.6 187.642 80.944C187.986 80.28 188.158 79.504 188.158 78.616C188.158 77.736 187.986 76.972 187.642 76.324C187.298 75.676 186.822 75.176 186.214 74.824C185.606 74.472 184.902 74.296 184.102 74.296C183.31 74.296 182.606 74.472 181.99 74.824C181.382 75.176 180.906 75.676 180.562 76.324C180.218 76.972 180.046 77.736 180.046 78.616C180.046 79.504 180.218 80.28 180.562 80.944C180.906 81.6 181.382 82.108 181.99 82.468C182.606 82.828 183.31 83.008 184.102 83.008ZM201.557 85V79.6C201.557 79.112 201.557 78.692 201.557 78.34C201.557 77.98 201.557 77.676 201.557 77.428C201.557 77.116 201.533 76.784 201.485 76.432C201.445 76.08 201.349 75.752 201.197 75.448C201.053 75.136 200.825 74.884 200.513 74.692C200.201 74.5 199.773 74.404 199.229 74.404C198.685 74.404 198.225 74.512 197.849 74.728C197.473 74.944 197.169 75.232 196.937 75.592C196.705 75.944 196.537 76.34 196.433 76.78C196.329 77.212 196.277 77.648 196.277 78.088L195.173 77.488C195.173 76.488 195.369 75.58 195.761 74.764C196.161 73.94 196.721 73.284 197.441 72.796C198.169 72.3 199.025 72.052 200.009 72.052C201.009 72.052 201.809 72.26 202.409 72.676C203.017 73.084 203.457 73.644 203.729 74.356C204.001 75.06 204.137 75.86 204.137 76.756C204.137 77.084 204.137 77.512 204.137 78.04C204.137 78.568 204.137 79.18 204.137 79.876V85H201.557ZM193.673 85V72.256H196.277V85H193.673ZM209.405 85V79.612C209.405 79.084 209.405 78.644 209.405 78.292C209.405 77.932 209.405 77.632 209.405 77.392C209.405 77.064 209.385 76.728 209.345 76.384C209.305 76.032 209.209 75.708 209.057 75.412C208.905 75.116 208.669 74.876 208.349 74.692C208.037 74.5 207.601 74.404 207.041 74.404C206.489 74.404 206.025 74.512 205.649 74.728C205.281 74.936 204.985 75.216 204.761 75.568C204.537 75.912 204.377 76.292 204.281 76.708C204.185 77.124 204.137 77.536 204.137 77.944L203.033 77.368C203.033 76.408 203.225 75.524 203.609 74.716C204.001 73.908 204.553 73.264 205.265 72.784C205.985 72.296 206.837 72.052 207.821 72.052C208.781 72.052 209.569 72.244 210.185 72.628C210.801 73.012 211.257 73.544 211.553 74.224C211.849 74.904 211.997 75.692 211.997 76.588C211.997 76.932 211.997 77.364 211.997 77.884C211.997 78.404 211.997 79.008 211.997 79.696V85H209.405ZM215.306 90.244V72.256H217.91V90.244H215.306ZM222.014 85.252C221.022 85.252 220.102 85.004 219.254 84.508C218.406 84.004 217.718 83.316 217.19 82.444C216.67 81.572 216.41 80.584 216.41 79.48C216.41 79.448 216.41 79.424 216.41 79.408C216.41 79.384 216.41 79.36 216.41 79.336L217.922 79.3C217.922 79.316 217.922 79.336 217.922 79.36C217.922 79.376 217.922 79.396 217.922 79.42C217.922 80.076 218.09 80.668 218.426 81.196C218.77 81.716 219.214 82.128 219.758 82.432C220.302 82.736 220.886 82.888 221.51 82.888C222.534 82.888 223.394 82.54 224.09 81.844C224.794 81.14 225.146 80.06 225.146 78.604C225.146 77.14 224.798 76.064 224.102 75.376C223.406 74.68 222.542 74.332 221.51 74.332C220.886 74.332 220.302 74.484 219.758 74.788C219.214 75.084 218.77 75.492 218.426 76.012C218.09 76.524 217.922 77.112 217.922 77.776L216.41 77.716C216.41 76.604 216.67 75.624 217.19 74.776C217.718 73.92 218.406 73.252 219.254 72.772C220.102 72.292 221.022 72.052 222.014 72.052C223.046 72.052 224.002 72.308 224.882 72.82C225.762 73.324 226.47 74.064 227.006 75.04C227.55 76.016 227.822 77.204 227.822 78.604C227.822 80.036 227.558 81.248 227.03 82.24C226.502 83.232 225.798 83.984 224.918 84.496C224.038 85 223.07 85.252 222.014 85.252ZM235.348 85.228C234.444 85.228 233.692 85.076 233.092 84.772C232.492 84.46 232.016 84.056 231.664 83.56C231.312 83.056 231.064 82.508 230.92 81.916C230.776 81.316 230.704 80.732 230.704 80.164C230.704 79.868 230.704 79.56 230.704 79.24C230.704 78.912 230.704 78.584 230.704 78.256V72.256H233.32V77.884C233.32 78.172 233.32 78.456 233.32 78.736C233.32 79.008 233.32 79.264 233.32 79.504C233.32 80.12 233.4 80.688 233.56 81.208C233.72 81.72 234 82.136 234.4 82.456C234.808 82.768 235.376 82.924 236.104 82.924C236.784 82.924 237.376 82.724 237.88 82.324C238.384 81.916 238.776 81.404 239.056 80.788C239.336 80.164 239.476 79.54 239.476 78.916L240.616 79.528C240.616 80.264 240.492 80.972 240.244 81.652C240.004 82.332 239.656 82.944 239.2 83.488C238.744 84.024 238.188 84.448 237.532 84.76C236.884 85.072 236.156 85.228 235.348 85.228ZM239.476 85V72.256H242.08V85H239.476ZM250.824 85.216C250.4 85.216 249.976 85.172 249.552 85.084C249.136 84.996 248.752 84.836 248.4 84.604C248.056 84.364 247.78 84.024 247.572 83.584C247.364 83.144 247.26 82.568 247.26 81.856C247.26 81.688 247.26 81.512 247.26 81.328C247.26 81.144 247.26 80.956 247.26 80.764V74.416H244.2V72.256H245.808C246.152 72.256 246.42 72.244 246.612 72.22C246.812 72.188 246.956 72.12 247.044 72.016C247.14 71.904 247.2 71.728 247.224 71.488C247.248 71.248 247.26 70.92 247.26 70.504V68.044H249.864V72.256H253.764V74.416H249.864V80.068C249.864 80.228 249.864 80.388 249.864 80.548C249.864 80.708 249.864 80.856 249.864 80.992C249.864 81.632 249.94 82.136 250.092 82.504C250.252 82.872 250.612 83.056 251.172 83.056C251.412 83.056 251.64 83.036 251.856 82.996C252.072 82.956 252.236 82.912 252.348 82.864V84.988C252.204 85.044 252 85.096 251.736 85.144C251.472 85.192 251.168 85.216 250.824 85.216ZM256.287 85V72.256H258.855V85H256.287ZM257.583 69.616C257.135 69.616 256.747 69.496 256.419 69.256C256.099 69.008 255.939 68.668 255.939 68.236C255.939 67.812 256.099 67.48 256.419 67.24C256.747 66.992 257.135 66.868 257.583 66.868C258.023 66.868 258.403 66.992 258.723 67.24C259.051 67.48 259.215 67.812 259.215 68.236C259.215 68.668 259.051 69.008 258.723 69.256C258.403 69.496 258.023 69.616 257.583 69.616ZM271.393 85V79.12C271.393 78.776 271.393 78.484 271.393 78.244C271.393 78.004 271.393 77.78 271.393 77.572C271.393 76.948 271.297 76.4 271.105 75.928C270.913 75.448 270.597 75.076 270.157 74.812C269.717 74.54 269.129 74.404 268.393 74.404C267.745 74.404 267.157 74.564 266.629 74.884C266.109 75.204 265.693 75.64 265.381 76.192C265.077 76.736 264.925 77.356 264.925 78.052L263.809 77.5C263.809 76.468 264.053 75.544 264.541 74.728C265.029 73.904 265.681 73.252 266.497 72.772C267.321 72.292 268.221 72.052 269.197 72.052C270.205 72.052 271.065 72.248 271.777 72.64C272.497 73.024 273.045 73.576 273.421 74.296C273.805 75.008 273.997 75.86 273.997 76.852C273.997 77.22 273.997 77.628 273.997 78.076C273.997 78.524 273.997 78.956 273.997 79.372V85H271.393ZM262.321 85V72.256H264.925V85H262.321ZM285.638 83.98C286.358 84.044 286.99 84.18 287.534 84.388C288.078 84.588 288.502 84.884 288.806 85.276C289.118 85.676 289.274 86.2 289.274 86.848C289.274 87.576 289.026 88.208 288.53 88.744C288.042 89.288 287.31 89.708 286.334 90.004C285.358 90.308 284.146 90.46 282.698 90.46C280.626 90.46 279.046 90.16 277.958 89.56C276.87 88.96 276.326 88.144 276.326 87.112C276.326 86.8 276.362 86.524 276.434 86.284C276.506 86.044 276.594 85.844 276.698 85.684L279.122 86.044C279.066 86.124 279.01 86.24 278.954 86.392C278.898 86.552 278.87 86.744 278.87 86.968C278.87 87.536 279.218 87.94 279.914 88.18C280.61 88.42 281.574 88.54 282.806 88.54C283.71 88.54 284.458 88.476 285.05 88.348C285.65 88.228 286.098 88.052 286.394 87.82C286.69 87.588 286.838 87.316 286.838 87.004C286.838 86.532 286.634 86.236 286.226 86.116C285.818 85.996 285.326 85.912 284.75 85.864L279.914 85.468C279.074 85.396 278.386 85.144 277.85 84.712C277.322 84.28 277.058 83.736 277.058 83.08C277.058 82.672 277.162 82.292 277.37 81.94C277.578 81.588 277.818 81.292 278.09 81.052C278.37 80.812 278.61 80.664 278.81 80.608L280.514 81.424C280.33 81.448 280.106 81.572 279.842 81.796C279.586 82.012 279.458 82.268 279.458 82.564C279.458 82.836 279.57 83.06 279.794 83.236C280.026 83.412 280.474 83.528 281.138 83.584L285.638 83.98ZM287.234 72.256H289.598L288.626 77.236C288.45 78.164 288.126 79.004 287.654 79.756C287.19 80.5 286.558 81.088 285.758 81.52C284.966 81.952 283.978 82.168 282.794 82.168C281.562 82.168 280.502 81.956 279.614 81.532C278.726 81.108 278.042 80.52 277.562 79.768C277.09 79.008 276.854 78.144 276.854 77.176C276.854 76.192 277.098 75.312 277.586 74.536C278.082 73.76 278.762 73.152 279.626 72.712C280.498 72.272 281.494 72.052 282.614 72.052C283.558 72.052 284.394 72.212 285.122 72.532C285.858 72.852 286.442 73.26 286.874 73.756C287.306 74.252 287.542 74.768 287.582 75.304L286.838 75.388L287.234 72.256ZM282.782 80.044C283.478 80.044 284.078 79.932 284.582 79.708C285.086 79.476 285.474 79.144 285.746 78.712C286.018 78.272 286.154 77.744 286.154 77.128C286.154 76.52 286.018 76 285.746 75.568C285.474 75.128 285.086 74.792 284.582 74.56C284.078 74.32 283.482 74.2 282.794 74.2C282.13 74.2 281.542 74.324 281.03 74.572C280.526 74.812 280.13 75.152 279.842 75.592C279.554 76.032 279.41 76.556 279.41 77.164C279.41 77.772 279.546 78.292 279.818 78.724C280.09 79.148 280.478 79.476 280.982 79.708C281.486 79.932 282.086 80.044 282.782 80.044ZM297.979 85V67.3H300.583V84.208L299.407 82.792H307.435V85H297.979ZM314.55 85.252C313.59 85.252 312.746 85.1 312.018 84.796C311.298 84.492 310.738 84.056 310.338 83.488C309.938 82.92 309.738 82.236 309.738 81.436C309.738 80.58 309.962 79.872 310.41 79.312C310.866 78.752 311.49 78.32 312.282 78.016C313.082 77.704 313.99 77.5 315.006 77.404C316.518 77.252 317.582 77.104 318.198 76.96C318.822 76.816 319.134 76.58 319.134 76.252C319.134 76.244 319.134 76.236 319.134 76.228C319.134 75.58 318.858 75.088 318.306 74.752C317.754 74.416 316.966 74.248 315.942 74.248C314.862 74.248 314.026 74.44 313.434 74.824C312.85 75.2 312.558 75.8 312.558 76.624H310.002C310.002 75.648 310.254 74.82 310.758 74.14C311.27 73.46 311.974 72.944 312.87 72.592C313.766 72.232 314.794 72.052 315.954 72.052C317.018 72.052 317.986 72.216 318.858 72.544C319.738 72.864 320.438 73.344 320.958 73.984C321.478 74.624 321.738 75.42 321.738 76.372C321.738 76.54 321.738 76.708 321.738 76.876C321.738 77.036 321.738 77.2 321.738 77.368V82.456C321.738 82.752 321.75 83.04 321.774 83.32C321.798 83.592 321.842 83.836 321.906 84.052C321.978 84.3 322.062 84.504 322.158 84.664C322.262 84.824 322.346 84.936 322.41 85H319.818C319.77 84.952 319.698 84.852 319.602 84.7C319.514 84.54 319.434 84.356 319.362 84.148C319.29 83.948 319.234 83.72 319.194 83.464C319.162 83.2 319.146 82.916 319.146 82.612L319.626 82.948C319.386 83.412 319.022 83.816 318.534 84.16C318.054 84.504 317.474 84.772 316.794 84.964C316.122 85.156 315.374 85.252 314.55 85.252ZM315.09 83.092C315.834 83.092 316.51 82.976 317.118 82.744C317.734 82.504 318.226 82.144 318.594 81.664C318.962 81.176 319.146 80.564 319.146 79.828V77.716L319.758 78.52C319.246 78.72 318.618 78.884 317.874 79.012C317.138 79.132 316.378 79.232 315.594 79.312C314.514 79.408 313.702 79.596 313.158 79.876C312.614 80.148 312.342 80.604 312.342 81.244C312.342 81.86 312.566 82.324 313.014 82.636C313.47 82.94 314.162 83.092 315.09 83.092ZM331.607 85.252C330.615 85.252 329.695 85.004 328.847 84.508C327.999 84.004 327.311 83.316 326.783 82.444C326.263 81.572 326.003 80.584 326.003 79.48C326.003 79.448 326.003 79.424 326.003 79.408C326.003 79.384 326.003 79.36 326.003 79.336L327.515 79.3C327.515 79.316 327.515 79.336 327.515 79.36C327.515 79.376 327.515 79.396 327.515 79.42C327.515 80.076 327.683 80.668 328.019 81.196C328.363 81.716 328.807 82.128 329.351 82.432C329.895 82.736 330.479 82.888 331.103 82.888C332.127 82.888 332.987 82.54 333.683 81.844C334.387 81.14 334.739 80.06 334.739 78.604C334.739 77.14 334.391 76.064 333.695 75.376C332.999 74.68 332.135 74.332 331.103 74.332C330.479 74.332 329.895 74.484 329.351 74.788C328.807 75.084 328.363 75.492 328.019 76.012C327.683 76.524 327.515 77.112 327.515 77.776L326.003 77.716C326.003 76.604 326.263 75.624 326.783 74.776C327.311 73.92 327.999 73.252 328.847 72.772C329.695 72.292 330.615 72.052 331.607 72.052C332.639 72.052 333.595 72.308 334.475 72.82C335.355 73.324 336.063 74.064 336.599 75.04C337.143 76.016 337.415 77.204 337.415 78.604C337.415 80.036 337.151 81.248 336.623 82.24C336.095 83.232 335.391 83.984 334.511 84.496C333.631 85 332.663 85.252 331.607 85.252ZM324.899 85V66.244H327.515V85H324.899Z" fill="black"/>
</svg>
